<svg xmlns="http://www.w3.org/2000/svg" viewBox="0 0 1200 200" preserveAspectRatio="xMidYMax slice"><g opacity=".45"><rect x="90" y="112" width="70" height="88" fill="#4a0937"/><rect x="90" y="112" width="70" height="4" fill="#7ff0e0" opacity=".55"/><rect x="104" y="103" width="42" height="9" fill="#38062a"/><rect x="98.5" y="129.5" width="5.0" height="6.0" rx=".8" fill="#ffd75e" opacity="0.65"/><rect x="98.5" y="146.5" width="5.0" height="6.0" rx=".8" fill="#7ff0e0" opacity="0.5"/><rect x="110.5" y="146.5" width="5.0" height="6.0" rx=".8" fill="#ffd75e" opacity="0.65"/><rect x="110.5" y="163.5" width="5.0" height="6.0" rx=".8" fill="#ffd75e" opacity="0.65"/><rect x="110.5" y="180.5" width="5.0" height="6.0" rx=".8" fill="#7ff0e0" opacity="0.5"/><rect x="122.5" y="129.5" width="5.0" height="6.0" rx=".8" fill="#7ff0e0" opacity="0.5"/><rect x="122.5" y="180.5" width="5.0" height="6.0" rx=".8" fill="#ffd75e" opacity="0.65"/><rect x="134.5" y="129.5" width="5.0" height="6.0" rx=".8" fill="#ffd75e" opacity="0.65"/><rect x="134.5" y="146.5" width="5.0" height="6.0" rx=".8" fill="#ffd75e" opacity="0.65"/><rect x="134.5" y="163.5" width="5.0" height="6.0" rx=".8" fill="#7ff0e0" opacity="0.5"/><rect x="146.5" y="146.5" width="5.0" height="6.0" rx=".8" fill="#ffd75e" opacity="0.65"/><rect x="146.5" y="163.5" width="5.0" height="6.0" rx=".8" fill="#ffd75e" opacity="0.65"/><rect x="146.5" y="180.5" width="5.0" height="6.0" rx=".8" fill="#ffd75e" opacity="0.65"/><rect x="300" y="112" width="58" height="88" fill="#4a0937"/><rect x="305.8" y="105" width="46.400000000000006" height="10" fill="#4a0937"/><rect x="315.08" y="98" width="27.84" height="9" fill="#4a0937"/><rect x="298.5" y="110" width="61" height="2.5" fill="#38062a"/><rect x="307.8" y="152.1" width="5.0" height="5.9" rx=".8" fill="#ffd75e" opacity="0.65"/><rect x="307.8" y="166.1" width="5.0" height="5.9" rx=".8" fill="#ffd75e" opacity="0.65"/><rect x="307.8" y="180.1" width="5.0" height="5.9" rx=".8" fill="#7ff0e0" opacity="0.5"/><rect x="320.3" y="124.1" width="5.0" height="5.9" rx=".8" fill="#ffd75e" opacity="0.65"/><rect x="320.3" y="138.1" width="5.0" height="5.9" rx=".8" fill="#7ff0e0" opacity="0.5"/><rect x="320.3" y="180.1" width="5.0" height="5.9" rx=".8" fill="#ffd75e" opacity="0.65"/><rect x="332.8" y="124.1" width="5.0" height="5.9" rx=".8" fill="#ffd75e" opacity="0.65"/><rect x="332.8" y="138.1" width="5.0" height="5.9" rx=".8" fill="#ffd75e" opacity="0.65"/><rect x="332.8" y="152.1" width="5.0" height="5.9" rx=".8" fill="#ffd75e" opacity="0.65"/><rect x="332.8" y="166.1" width="5.0" height="5.9" rx=".8" fill="#7ff0e0" opacity="0.5"/><rect x="345.3" y="152.1" width="5.0" height="5.9" rx=".8" fill="#ffd75e" opacity="0.65"/><rect x="345.3" y="166.1" width="5.0" height="5.9" rx=".8" fill="#ffd75e" opacity="0.65"/><rect x="345.3" y="180.1" width="5.0" height="5.9" rx=".8" fill="#ffd75e" opacity="0.65"/><rect x="620" y="118" width="82" height="82" fill="#4a0937"/><rect x="620" y="118" width="82" height="4" fill="#ffd75e" opacity=".55"/><rect x="636.4" y="109" width="49.199999999999996" height="9" fill="#38062a"/><rect x="628.5" y="134.8" width="5.0" height="6.0" rx=".8" fill="#ffd75e" opacity="0.65"/><rect x="628.5" y="150.3" width="5.0" height="6.0" rx=".8" fill="#ffd75e" opacity="0.65"/><rect x="628.5" y="165.8" width="5.0" height="6.0" rx=".8" fill="#7ff0e0" opacity="0.5"/><rect x="640.5" y="150.3" width="5.0" height="6.0" rx=".8" fill="#ffd75e" opacity="0.65"/><rect x="640.5" y="165.8" width="5.0" height="6.0" rx=".8" fill="#ffd75e" opacity="0.65"/><rect x="640.5" y="181.3" width="5.0" height="6.0" rx=".8" fill="#ffd75e" opacity="0.65"/><rect x="652.5" y="134.8" width="5.0" height="6.0" rx=".8" fill="#7ff0e0" opacity="0.5"/><rect x="652.5" y="181.3" width="5.0" height="6.0" rx=".8" fill="#ffd75e" opacity="0.65"/><rect x="664.5" y="134.8" width="5.0" height="6.0" rx=".8" fill="#ffd75e" opacity="0.65"/><rect x="664.5" y="150.3" width="5.0" height="6.0" rx=".8" fill="#ffd75e" opacity="0.65"/><rect x="664.5" y="165.8" width="5.0" height="6.0" rx=".8" fill="#7ff0e0" opacity="0.5"/><rect x="676.5" y="165.8" width="5.0" height="6.0" rx=".8" fill="#ffd75e" opacity="0.65"/><rect x="676.5" y="181.3" width="5.0" height="6.0" rx=".8" fill="#ffd75e" opacity="0.65"/><rect x="688.5" y="134.8" width="5.0" height="6.0" rx=".8" fill="#ffd75e" opacity="0.65"/><rect x="688.5" y="150.3" width="5.0" height="6.0" rx=".8" fill="#7ff0e0" opacity="0.5"/><rect x="905" y="118" width="64" height="82" fill="#4a0937"/><rect x="911.4" y="111" width="51.2" height="10" fill="#4a0937"/><rect x="921.64" y="104" width="30.72" height="9" fill="#4a0937"/><rect x="903.5" y="116" width="67" height="2.5" fill="#38062a"/><rect x="912.1" y="131.0" width="5.0" height="6.0" rx=".8" fill="#ffd75e" opacity="0.65"/><rect x="912.1" y="147.0" width="5.0" height="6.0" rx=".8" fill="#ffd75e" opacity="0.65"/><rect x="912.1" y="163.0" width="5.0" height="6.0" rx=".8" fill="#7ff0e0" opacity="0.5"/><rect x="923.3" y="163.0" width="5.0" height="6.0" rx=".8" fill="#ffd75e" opacity="0.65"/><rect x="923.3" y="179.0" width="5.0" height="6.0" rx=".8" fill="#ffd75e" opacity="0.65"/><rect x="934.5" y="131.0" width="5.0" height="6.0" rx=".8" fill="#ffd75e" opacity="0.65"/><rect x="934.5" y="147.0" width="5.0" height="6.0" rx=".8" fill="#7ff0e0" opacity="0.5"/><rect x="945.7" y="131.0" width="5.0" height="6.0" rx=".8" fill="#ffd75e" opacity="0.65"/><rect x="945.7" y="147.0" width="5.0" height="6.0" rx=".8" fill="#ffd75e" opacity="0.65"/><rect x="945.7" y="163.0" width="5.0" height="6.0" rx=".8" fill="#ffd75e" opacity="0.65"/><rect x="945.7" y="179.0" width="5.0" height="6.0" rx=".8" fill="#7ff0e0" opacity="0.5"/><rect x="956.9" y="163.0" width="5.0" height="6.0" rx=".8" fill="#ffd75e" opacity="0.65"/><rect x="956.9" y="179.0" width="5.0" height="6.0" rx=".8" fill="#ffd75e" opacity="0.65"/><rect x="1090" y="120" width="76" height="80" fill="#4a0937"/><rect x="1090" y="120" width="76" height="4" fill="#7ff0e0" opacity=".55"/><rect x="1105.2" y="111" width="45.6" height="9" fill="#38062a"/><rect x="1099.1" y="136.5" width="5.0" height="6.0" rx=".8" fill="#7ff0e0" opacity="0.5"/><rect x="1099.1" y="181.5" width="5.0" height="6.0" rx=".8" fill="#ffd75e" opacity="0.65"/><rect x="1112.3" y="136.5" width="5.0" height="6.0" rx=".8" fill="#ffd75e" opacity="0.65"/><rect x="1112.3" y="151.5" width="5.0" height="6.0" rx=".8" fill="#ffd75e" opacity="0.65"/><rect x="1112.3" y="166.5" width="5.0" height="6.0" rx=".8" fill="#7ff0e0" opacity="0.5"/><rect x="1125.5" y="151.5" width="5.0" height="6.0" rx=".8" fill="#ffd75e" opacity="0.65"/><rect x="1125.5" y="166.5" width="5.0" height="6.0" rx=".8" fill="#ffd75e" opacity="0.65"/><rect x="1125.5" y="181.5" width="5.0" height="6.0" rx=".8" fill="#ffd75e" opacity="0.65"/><rect x="1138.7" y="136.5" width="5.0" height="6.0" rx=".8" fill="#7ff0e0" opacity="0.5"/><rect x="1138.7" y="181.5" width="5.0" height="6.0" rx=".8" fill="#ffd75e" opacity="0.65"/><rect x="1151.9" y="136.5" width="5.0" height="6.0" rx=".8" fill="#ffd75e" opacity="0.65"/><rect x="1151.9" y="151.5" width="5.0" height="6.0" rx=".8" fill="#ffd75e" opacity="0.65"/><rect x="1151.9" y="166.5" width="5.0" height="6.0" rx=".8" fill="#7ff0e0" opacity="0.5"/></g><rect x="40" y="84" width="46" height="116" fill="#4a0937"/><rect x="46.44" y="70" width="33.12" height="22" fill="#4a0937"/><rect x="55.64" y="58" width="14.72" height="16" fill="#4a0937"/><rect x="61.62" y="42" width="2.76" height="18" fill="#38062a"/><circle cx="63" cy="40" r="2.4" fill="#ffd75e" opacity=".8"/><rect x="38" y="82" width="50" height="3" fill="#38062a"/><rect x="38" y="118" width="50" height="2.5" fill="#38062a"/><rect x="46.6" y="97.0" width="4.4" height="6.0" rx=".8" fill="#7ff0e0" opacity="0.5"/><rect x="46.6" y="145.0" width="4.4" height="6.0" rx=".8" fill="#ffd75e" opacity="0.65"/><rect x="46.6" y="161.0" width="4.4" height="6.0" rx=".8" fill="#ffd75e" opacity="0.65"/><rect x="46.6" y="177.0" width="4.4" height="6.0" rx=".8" fill="#ffd75e" opacity="0.65"/><rect x="56.1" y="97.0" width="4.4" height="6.0" rx=".8" fill="#ffd75e" opacity="0.65"/><rect x="56.1" y="113.0" width="4.4" height="6.0" rx=".8" fill="#ffd75e" opacity="0.65"/><rect x="56.1" y="129.0" width="4.4" height="6.0" rx=".8" fill="#7ff0e0" opacity="0.5"/><rect x="56.1" y="177.0" width="4.4" height="6.0" rx=".8" fill="#ffd75e" opacity="0.65"/><rect x="65.6" y="129.0" width="4.4" height="6.0" rx=".8" fill="#ffd75e" opacity="0.65"/><rect x="65.6" y="145.0" width="4.4" height="6.0" rx=".8" fill="#ffd75e" opacity="0.65"/><rect x="65.6" y="161.0" width="4.4" height="6.0" rx=".8" fill="#7ff0e0" opacity="0.5"/><rect x="75.1" y="97.0" width="4.4" height="6.0" rx=".8" fill="#ffd75e" opacity="0.65"/><rect x="75.1" y="113.0" width="4.4" height="6.0" rx=".8" fill="#7ff0e0" opacity="0.5"/><rect x="75.1" y="161.0" width="4.4" height="6.0" rx=".8" fill="#ffd75e" opacity="0.65"/><rect x="75.1" y="177.0" width="4.4" height="6.0" rx=".8" fill="#ffd75e" opacity="0.65"/><rect x="150" y="104" width="74" height="96" fill="#4a0937"/><rect x="150" y="104" width="74" height="4" fill="#7ff0e0" opacity=".55"/><rect x="164.8" y="95" width="44.4" height="9" fill="#38062a"/><rect x="158.9" y="135.8" width="5.0" height="6.0" rx=".8" fill="#ffd75e" opacity="0.65"/><rect x="158.9" y="151.0" width="5.0" height="6.0" rx=".8" fill="#ffd75e" opacity="0.65"/><rect x="158.9" y="166.2" width="5.0" height="6.0" rx=".8" fill="#7ff0e0" opacity="0.5"/><rect x="171.7" y="120.6" width="5.0" height="6.0" rx=".8" fill="#7ff0e0" opacity="0.5"/><rect x="171.7" y="166.2" width="5.0" height="6.0" rx=".8" fill="#ffd75e" opacity="0.65"/><rect x="171.7" y="181.4" width="5.0" height="6.0" rx=".8" fill="#ffd75e" opacity="0.65"/><rect x="184.5" y="120.6" width="5.0" height="6.0" rx=".8" fill="#ffd75e" opacity="0.65"/><rect x="184.5" y="135.8" width="5.0" height="6.0" rx=".8" fill="#ffd75e" opacity="0.65"/><rect x="184.5" y="151.0" width="5.0" height="6.0" rx=".8" fill="#7ff0e0" opacity="0.5"/><rect x="197.3" y="135.8" width="5.0" height="6.0" rx=".8" fill="#ffd75e" opacity="0.65"/><rect x="197.3" y="151.0" width="5.0" height="6.0" rx=".8" fill="#ffd75e" opacity="0.65"/><rect x="197.3" y="166.2" width="5.0" height="6.0" rx=".8" fill="#ffd75e" opacity="0.65"/><rect x="197.3" y="181.4" width="5.0" height="6.0" rx=".8" fill="#7ff0e0" opacity="0.5"/><rect x="210.1" y="120.6" width="5.0" height="6.0" rx=".8" fill="#7ff0e0" opacity="0.5"/><rect x="210.1" y="166.2" width="5.0" height="6.0" rx=".8" fill="#ffd75e" opacity="0.65"/><rect x="210.1" y="181.4" width="5.0" height="6.0" rx=".8" fill="#ffd75e" opacity="0.65"/><rect x="236" y="94" width="52" height="106" fill="#4a0937"/><rect x="241.2" y="87" width="41.6" height="10" fill="#4a0937"/><rect x="249.52" y="80" width="24.96" height="9" fill="#4a0937"/><rect x="234.5" y="92" width="55" height="2.5" fill="#38062a"/><rect x="243.0" y="106.3" width="5.0" height="6.0" rx=".8" fill="#ffd75e" opacity="0.65"/><rect x="243.0" y="121.0" width="5.0" height="6.0" rx=".8" fill="#7ff0e0" opacity="0.5"/><rect x="243.0" y="165.0" width="5.0" height="6.0" rx=".8" fill="#ffd75e" opacity="0.65"/><rect x="243.0" y="179.7" width="5.0" height="6.0" rx=".8" fill="#ffd75e" opacity="0.65"/><rect x="254.0" y="106.3" width="5.0" height="6.0" rx=".8" fill="#ffd75e" opacity="0.65"/><rect x="254.0" y="121.0" width="5.0" height="6.0" rx=".8" fill="#ffd75e" opacity="0.65"/><rect x="254.0" y="135.7" width="5.0" height="6.0" rx=".8" fill="#ffd75e" opacity="0.65"/><rect x="254.0" y="150.3" width="5.0" height="6.0" rx=".8" fill="#7ff0e0" opacity="0.5"/><rect x="265.0" y="135.7" width="5.0" height="6.0" rx=".8" fill="#ffd75e" opacity="0.65"/><rect x="265.0" y="150.3" width="5.0" height="6.0" rx=".8" fill="#ffd75e" opacity="0.65"/><rect x="265.0" y="165.0" width="5.0" height="6.0" rx=".8" fill="#ffd75e" opacity="0.65"/><rect x="265.0" y="179.7" width="5.0" height="6.0" rx=".8" fill="#7ff0e0" opacity="0.5"/><rect x="276.0" y="106.3" width="5.0" height="6.0" rx=".8" fill="#ffd75e" opacity="0.65"/><rect x="276.0" y="121.0" width="5.0" height="6.0" rx=".8" fill="#7ff0e0" opacity="0.5"/><rect x="276.0" y="165.0" width="5.0" height="6.0" rx=".8" fill="#ffd75e" opacity="0.65"/><rect x="276.0" y="179.7" width="5.0" height="6.0" rx=".8" fill="#ffd75e" opacity="0.65"/><rect x="360" y="72" width="40" height="128" fill="#4a0937"/><rect x="365.6" y="58" width="28.799999999999997" height="22" fill="#4a0937"/><rect x="373.6" y="46" width="12.8" height="16" fill="#4a0937"/><rect x="378.8" y="30" width="2.4" height="18" fill="#38062a"/><circle cx="380" cy="28" r="2.4" fill="#ffd75e" opacity=".8"/><rect x="358" y="70" width="44" height="3" fill="#38062a"/><rect x="358" y="106" width="44" height="2.5" fill="#38062a"/><rect x="366.9" y="84.7" width="4.9" height="6.0" rx=".8" fill="#ffd75e" opacity="0.65"/><rect x="366.9" y="100.1" width="4.9" height="6.0" rx=".8" fill="#ffd75e" opacity="0.65"/><rect x="366.9" y="115.6" width="4.9" height="6.0" rx=".8" fill="#ffd75e" opacity="0.65"/><rect x="366.9" y="131.0" width="4.9" height="6.0" rx=".8" fill="#7ff0e0" opacity="0.5"/><rect x="366.9" y="177.3" width="4.9" height="6.0" rx=".8" fill="#ffd75e" opacity="0.65"/><rect x="377.5" y="115.6" width="4.9" height="6.0" rx=".8" fill="#ffd75e" opacity="0.65"/><rect x="377.5" y="131.0" width="4.9" height="6.0" rx=".8" fill="#ffd75e" opacity="0.65"/><rect x="377.5" y="146.4" width="4.9" height="6.0" rx=".8" fill="#ffd75e" opacity="0.65"/><rect x="377.5" y="161.9" width="4.9" height="6.0" rx=".8" fill="#7ff0e0" opacity="0.5"/><rect x="388.2" y="84.7" width="4.9" height="6.0" rx=".8" fill="#ffd75e" opacity="0.65"/><rect x="388.2" y="100.1" width="4.9" height="6.0" rx=".8" fill="#7ff0e0" opacity="0.5"/><rect x="388.2" y="146.4" width="4.9" height="6.0" rx=".8" fill="#ffd75e" opacity="0.65"/><rect x="388.2" y="161.9" width="4.9" height="6.0" rx=".8" fill="#ffd75e" opacity="0.65"/><rect x="388.2" y="177.3" width="4.9" height="6.0" rx=".8" fill="#ffd75e" opacity="0.65"/><rect x="412" y="110" width="88" height="90" fill="#4a0937"/><rect x="412" y="110" width="88" height="4" fill="#ffd75e" opacity=".55"/><rect x="429.6" y="101" width="52.8" height="9" fill="#38062a"/><rect x="421.0" y="127.8" width="5.0" height="6.0" rx=".8" fill="#ffd75e" opacity="0.65"/><rect x="421.0" y="145.3" width="5.0" height="6.0" rx=".8" fill="#7ff0e0" opacity="0.5"/><rect x="434.0" y="145.3" width="5.0" height="6.0" rx=".8" fill="#ffd75e" opacity="0.65"/><rect x="434.0" y="162.8" width="5.0" height="6.0" rx=".8" fill="#ffd75e" opacity="0.65"/><rect x="434.0" y="180.3" width="5.0" height="6.0" rx=".8" fill="#7ff0e0" opacity="0.5"/><rect x="447.0" y="127.8" width="5.0" height="6.0" rx=".8" fill="#7ff0e0" opacity="0.5"/><rect x="447.0" y="180.3" width="5.0" height="6.0" rx=".8" fill="#ffd75e" opacity="0.65"/><rect x="460.0" y="127.8" width="5.0" height="6.0" rx=".8" fill="#ffd75e" opacity="0.65"/><rect x="460.0" y="145.3" width="5.0" height="6.0" rx=".8" fill="#ffd75e" opacity="0.65"/><rect x="460.0" y="162.8" width="5.0" height="6.0" rx=".8" fill="#7ff0e0" opacity="0.5"/><rect x="473.0" y="145.3" width="5.0" height="6.0" rx=".8" fill="#ffd75e" opacity="0.65"/><rect x="473.0" y="162.8" width="5.0" height="6.0" rx=".8" fill="#ffd75e" opacity="0.65"/><rect x="473.0" y="180.3" width="5.0" height="6.0" rx=".8" fill="#ffd75e" opacity="0.65"/><rect x="486.0" y="127.8" width="5.0" height="6.0" rx=".8" fill="#7ff0e0" opacity="0.5"/><rect x="486.0" y="180.3" width="5.0" height="6.0" rx=".8" fill="#ffd75e" opacity="0.65"/><rect x="512" y="86" width="56" height="114" fill="#4a0937"/><rect x="517.6" y="79" width="44.800000000000004" height="10" fill="#4a0937"/><rect x="526.56" y="72" width="26.88" height="9" fill="#4a0937"/><rect x="510.5" y="84" width="59" height="2.5" fill="#38062a"/><rect x="519.5" y="99.0" width="5.0" height="6.0" rx=".8" fill="#7ff0e0" opacity="0.5"/><rect x="519.5" y="147.0" width="5.0" height="6.0" rx=".8" fill="#ffd75e" opacity="0.65"/><rect x="519.5" y="163.0" width="5.0" height="6.0" rx=".8" fill="#ffd75e" opacity="0.65"/><rect x="519.5" y="179.0" width="5.0" height="6.0" rx=".8" fill="#7ff0e0" opacity="0.5"/><rect x="531.5" y="99.0" width="5.0" height="6.0" rx=".8" fill="#ffd75e" opacity="0.65"/><rect x="531.5" y="115.0" width="5.0" height="6.0" rx=".8" fill="#ffd75e" opacity="0.65"/><rect x="531.5" y="131.0" width="5.0" height="6.0" rx=".8" fill="#7ff0e0" opacity="0.5"/><rect x="531.5" y="179.0" width="5.0" height="6.0" rx=".8" fill="#ffd75e" opacity="0.65"/><rect x="543.5" y="115.0" width="5.0" height="6.0" rx=".8" fill="#ffd75e" opacity="0.65"/><rect x="543.5" y="131.0" width="5.0" height="6.0" rx=".8" fill="#ffd75e" opacity="0.65"/><rect x="543.5" y="147.0" width="5.0" height="6.0" rx=".8" fill="#ffd75e" opacity="0.65"/><rect x="543.5" y="163.0" width="5.0" height="6.0" rx=".8" fill="#7ff0e0" opacity="0.5"/><rect x="555.5" y="99.0" width="5.0" height="6.0" rx=".8" fill="#7ff0e0" opacity="0.5"/><rect x="555.5" y="147.0" width="5.0" height="6.0" rx=".8" fill="#ffd75e" opacity="0.65"/><rect x="555.5" y="163.0" width="5.0" height="6.0" rx=".8" fill="#ffd75e" opacity="0.65"/><rect x="555.5" y="179.0" width="5.0" height="6.0" rx=".8" fill="#ffd75e" opacity="0.65"/><rect x="660" y="96" width="68" height="104" fill="#4a0937"/><rect x="660" y="96" width="68" height="4" fill="#7ff0e0" opacity=".55"/><rect x="673.6" y="87" width="40.8" height="9" fill="#38062a"/><rect x="668.3" y="113.4" width="5.0" height="6.0" rx=".8" fill="#7ff0e0" opacity="0.5"/><rect x="668.3" y="163.8" width="5.0" height="6.0" rx=".8" fill="#ffd75e" opacity="0.65"/><rect x="668.3" y="180.6" width="5.0" height="6.0" rx=".8" fill="#ffd75e" opacity="0.65"/><rect x="679.9" y="113.4" width="5.0" height="6.0" rx=".8" fill="#ffd75e" opacity="0.65"/><rect x="679.9" y="130.2" width="5.0" height="6.0" rx=".8" fill="#ffd75e" opacity="0.65"/><rect x="679.9" y="147.0" width="5.0" height="6.0" rx=".8" fill="#7ff0e0" opacity="0.5"/><rect x="691.5" y="147.0" width="5.0" height="6.0" rx=".8" fill="#ffd75e" opacity="0.65"/><rect x="691.5" y="163.8" width="5.0" height="6.0" rx=".8" fill="#ffd75e" opacity="0.65"/><rect x="691.5" y="180.6" width="5.0" height="6.0" rx=".8" fill="#7ff0e0" opacity="0.5"/><rect x="703.1" y="113.4" width="5.0" height="6.0" rx=".8" fill="#ffd75e" opacity="0.65"/><rect x="703.1" y="130.2" width="5.0" height="6.0" rx=".8" fill="#7ff0e0" opacity="0.5"/><rect x="703.1" y="180.6" width="5.0" height="6.0" rx=".8" fill="#ffd75e" opacity="0.65"/><rect x="714.7" y="113.4" width="5.0" height="6.0" rx=".8" fill="#ffd75e" opacity="0.65"/><rect x="714.7" y="130.2" width="5.0" height="6.0" rx=".8" fill="#ffd75e" opacity="0.65"/><rect x="714.7" y="147.0" width="5.0" height="6.0" rx=".8" fill="#ffd75e" opacity="0.65"/><rect x="714.7" y="163.8" width="5.0" height="6.0" rx=".8" fill="#7ff0e0" opacity="0.5"/><rect x="742" y="80" width="44" height="120" fill="#4a0937"/><rect x="748.16" y="66" width="31.68" height="22" fill="#4a0937"/><rect x="756.96" y="54" width="14.08" height="16" fill="#4a0937"/><rect x="762.68" y="38" width="2.6399999999999997" height="18" fill="#38062a"/><circle cx="764" cy="36" r="2.4" fill="#ffd75e" opacity=".8"/><rect x="740" y="78" width="48" height="3" fill="#38062a"/><rect x="740" y="114" width="48" height="2.5" fill="#38062a"/><rect x="749.5" y="120.7" width="5.0" height="6.0" rx=".8" fill="#ffd75e" opacity="0.65"/><rect x="749.5" y="135.0" width="5.0" height="6.0" rx=".8" fill="#ffd75e" opacity="0.65"/><rect x="749.5" y="149.3" width="5.0" height="6.0" rx=".8" fill="#7ff0e0" opacity="0.5"/><rect x="761.5" y="92.1" width="5.0" height="6.0" rx=".8" fill="#ffd75e" opacity="0.65"/><rect x="761.5" y="106.4" width="5.0" height="6.0" rx=".8" fill="#7ff0e0" opacity="0.5"/><rect x="761.5" y="149.3" width="5.0" height="6.0" rx=".8" fill="#ffd75e" opacity="0.65"/><rect x="761.5" y="163.6" width="5.0" height="6.0" rx=".8" fill="#ffd75e" opacity="0.65"/><rect x="761.5" y="177.9" width="5.0" height="6.0" rx=".8" fill="#7ff0e0" opacity="0.5"/><rect x="773.5" y="92.1" width="5.0" height="6.0" rx=".8" fill="#ffd75e" opacity="0.65"/><rect x="773.5" y="106.4" width="5.0" height="6.0" rx=".8" fill="#ffd75e" opacity="0.65"/><rect x="773.5" y="120.7" width="5.0" height="6.0" rx=".8" fill="#ffd75e" opacity="0.65"/><rect x="773.5" y="135.0" width="5.0" height="6.0" rx=".8" fill="#7ff0e0" opacity="0.5"/><rect x="773.5" y="177.9" width="5.0" height="6.0" rx=".8" fill="#ffd75e" opacity="0.65"/><rect x="800" y="120" width="62" height="80" fill="#4a0937"/><rect x="806.2" y="113" width="49.6" height="10" fill="#4a0937"/><rect x="816.12" y="106" width="29.759999999999998" height="9" fill="#4a0937"/><rect x="798.5" y="118" width="65" height="2.5" fill="#38062a"/><rect x="806.9" y="132.8" width="5.0" height="6.0" rx=".8" fill="#ffd75e" opacity="0.65"/><rect x="806.9" y="148.3" width="5.0" height="6.0" rx=".8" fill="#ffd75e" opacity="0.65"/><rect x="806.9" y="163.8" width="5.0" height="6.0" rx=".8" fill="#7ff0e0" opacity="0.5"/><rect x="817.7" y="148.3" width="5.0" height="6.0" rx=".8" fill="#ffd75e" opacity="0.65"/><rect x="817.7" y="163.8" width="5.0" height="6.0" rx=".8" fill="#ffd75e" opacity="0.65"/><rect x="817.7" y="179.3" width="5.0" height="6.0" rx=".8" fill="#ffd75e" opacity="0.65"/><rect x="828.5" y="132.8" width="5.0" height="6.0" rx=".8" fill="#7ff0e0" opacity="0.5"/><rect x="828.5" y="179.3" width="5.0" height="6.0" rx=".8" fill="#ffd75e" opacity="0.65"/><rect x="839.3" y="132.8" width="5.0" height="6.0" rx=".8" fill="#ffd75e" opacity="0.65"/><rect x="839.3" y="148.3" width="5.0" height="6.0" rx=".8" fill="#ffd75e" opacity="0.65"/><rect x="839.3" y="163.8" width="5.0" height="6.0" rx=".8" fill="#7ff0e0" opacity="0.5"/><rect x="850.1" y="163.8" width="5.0" height="6.0" rx=".8" fill="#ffd75e" opacity="0.65"/><rect x="850.1" y="179.3" width="5.0" height="6.0" rx=".8" fill="#ffd75e" opacity="0.65"/><rect x="874" y="88" width="54" height="112" fill="#4a0937"/><rect x="874" y="88" width="54" height="4" fill="#ffd75e" opacity=".55"/><rect x="884.8" y="79" width="32.4" height="9" fill="#38062a"/><rect x="882.0" y="104.7" width="5.0" height="6.0" rx=".8" fill="#ffd75e" opacity="0.65"/><rect x="882.0" y="120.0" width="5.0" height="6.0" rx=".8" fill="#ffd75e" opacity="0.65"/><rect x="882.0" y="135.3" width="5.0" height="6.0" rx=".8" fill="#7ff0e0" opacity="0.5"/><rect x="882.0" y="181.3" width="5.0" height="6.0" rx=".8" fill="#ffd75e" opacity="0.65"/><rect x="893.0" y="135.3" width="5.0" height="6.0" rx=".8" fill="#ffd75e" opacity="0.65"/><rect x="893.0" y="150.7" width="5.0" height="6.0" rx=".8" fill="#ffd75e" opacity="0.65"/><rect x="893.0" y="166.0" width="5.0" height="6.0" rx=".8" fill="#7ff0e0" opacity="0.5"/><rect x="904.0" y="104.7" width="5.0" height="6.0" rx=".8" fill="#ffd75e" opacity="0.65"/><rect x="904.0" y="120.0" width="5.0" height="6.0" rx=".8" fill="#7ff0e0" opacity="0.5"/><rect x="904.0" y="166.0" width="5.0" height="6.0" rx=".8" fill="#ffd75e" opacity="0.65"/><rect x="904.0" y="181.3" width="5.0" height="6.0" rx=".8" fill="#ffd75e" opacity="0.65"/><rect x="915.0" y="104.7" width="5.0" height="6.0" rx=".8" fill="#ffd75e" opacity="0.65"/><rect x="915.0" y="120.0" width="5.0" height="6.0" rx=".8" fill="#ffd75e" opacity="0.65"/><rect x="915.0" y="135.3" width="5.0" height="6.0" rx=".8" fill="#ffd75e" opacity="0.65"/><rect x="915.0" y="150.7" width="5.0" height="6.0" rx=".8" fill="#7ff0e0" opacity="0.5"/><rect x="962" y="90" width="42" height="110" fill="#4a0937"/><rect x="967.88" y="76" width="30.24" height="22" fill="#4a0937"/><rect x="976.28" y="64" width="13.44" height="16" fill="#4a0937"/><rect x="981.74" y="48" width="2.52" height="18" fill="#38062a"/><circle cx="983" cy="46" r="2.4" fill="#ffd75e" opacity=".8"/><rect x="960" y="88" width="46" height="3" fill="#38062a"/><rect x="960" y="124" width="46" height="2.5" fill="#38062a"/><rect x="969.2" y="102.5" width="5.0" height="6.0" rx=".8" fill="#ffd75e" opacity="0.65"/><rect x="969.2" y="117.5" width="5.0" height="6.0" rx=".8" fill="#7ff0e0" opacity="0.5"/><rect x="969.2" y="162.5" width="5.0" height="6.0" rx=".8" fill="#ffd75e" opacity="0.65"/><rect x="969.2" y="177.5" width="5.0" height="6.0" rx=".8" fill="#ffd75e" opacity="0.65"/><rect x="980.5" y="102.5" width="5.0" height="6.0" rx=".8" fill="#ffd75e" opacity="0.65"/><rect x="980.5" y="117.5" width="5.0" height="6.0" rx=".8" fill="#ffd75e" opacity="0.65"/><rect x="980.5" y="132.5" width="5.0" height="6.0" rx=".8" fill="#ffd75e" opacity="0.65"/><rect x="980.5" y="147.5" width="5.0" height="6.0" rx=".8" fill="#7ff0e0" opacity="0.5"/><rect x="991.8" y="132.5" width="5.0" height="6.0" rx=".8" fill="#ffd75e" opacity="0.65"/><rect x="991.8" y="147.5" width="5.0" height="6.0" rx=".8" fill="#ffd75e" opacity="0.65"/><rect x="991.8" y="162.5" width="5.0" height="6.0" rx=".8" fill="#ffd75e" opacity="0.65"/><rect x="991.8" y="177.5" width="5.0" height="6.0" rx=".8" fill="#7ff0e0" opacity="0.5"/><rect x="1018" y="114" width="60" height="86" fill="#4a0937"/><rect x="1024" y="107" width="48" height="10" fill="#4a0937"/><rect x="1033.6" y="100" width="28.799999999999997" height="9" fill="#4a0937"/><rect x="1016.5" y="112" width="63" height="2.5" fill="#38062a"/><rect x="1024.8" y="139.5" width="4.8" height="5.7" rx=".8" fill="#ffd75e" opacity="0.65"/><rect x="1024.8" y="153.1" width="4.8" height="5.7" rx=".8" fill="#ffd75e" opacity="0.65"/><rect x="1024.8" y="166.7" width="4.8" height="5.7" rx=".8" fill="#7ff0e0" opacity="0.5"/><rect x="1035.2" y="125.9" width="4.8" height="5.7" rx=".8" fill="#7ff0e0" opacity="0.5"/><rect x="1035.2" y="166.7" width="4.8" height="5.7" rx=".8" fill="#ffd75e" opacity="0.65"/><rect x="1035.2" y="180.3" width="4.8" height="5.7" rx=".8" fill="#ffd75e" opacity="0.65"/><rect x="1045.6" y="125.9" width="4.8" height="5.7" rx=".8" fill="#ffd75e" opacity="0.65"/><rect x="1045.6" y="139.5" width="4.8" height="5.7" rx=".8" fill="#ffd75e" opacity="0.65"/><rect x="1045.6" y="153.1" width="4.8" height="5.7" rx=".8" fill="#7ff0e0" opacity="0.5"/><rect x="1056.0" y="139.5" width="4.8" height="5.7" rx=".8" fill="#ffd75e" opacity="0.65"/><rect x="1056.0" y="153.1" width="4.8" height="5.7" rx=".8" fill="#ffd75e" opacity="0.65"/><rect x="1056.0" y="166.7" width="4.8" height="5.7" rx=".8" fill="#ffd75e" opacity="0.65"/><rect x="1056.0" y="180.3" width="4.8" height="5.7" rx=".8" fill="#7ff0e0" opacity="0.5"/><rect x="1066.4" y="125.9" width="4.8" height="5.7" rx=".8" fill="#7ff0e0" opacity="0.5"/><rect x="1066.4" y="166.7" width="4.8" height="5.7" rx=".8" fill="#ffd75e" opacity="0.65"/><rect x="1066.4" y="180.3" width="4.8" height="5.7" rx=".8" fill="#ffd75e" opacity="0.65"/><rect x="1092" y="82" width="70" height="118" fill="#4a0937"/><rect x="1092" y="82" width="70" height="4" fill="#7ff0e0" opacity=".55"/><rect x="1106" y="73" width="42" height="9" fill="#38062a"/><rect x="1100.5" y="99.2" width="5.0" height="6.0" rx=".8" fill="#ffd75e" opacity="0.65"/><rect x="1100.5" y="115.5" width="5.0" height="6.0" rx=".8" fill="#ffd75e" opacity="0.65"/><rect x="1100.5" y="131.8" width="5.0" height="6.0" rx=".8" fill="#ffd75e" opacity="0.65"/><rect x="1100.5" y="148.2" width="5.0" height="6.0" rx=".8" fill="#7ff0e0" opacity="0.5"/><rect x="1112.5" y="131.8" width="5.0" height="6.0" rx=".8" fill="#ffd75e" opacity="0.65"/><rect x="1112.5" y="148.2" width="5.0" height="6.0" rx=".8" fill="#ffd75e" opacity="0.65"/><rect x="1112.5" y="164.5" width="5.0" height="6.0" rx=".8" fill="#ffd75e" opacity="0.65"/><rect x="1112.5" y="180.8" width="5.0" height="6.0" rx=".8" fill="#7ff0e0" opacity="0.5"/><rect x="1124.5" y="99.2" width="5.0" height="6.0" rx=".8" fill="#ffd75e" opacity="0.65"/><rect x="1124.5" y="115.5" width="5.0" height="6.0" rx=".8" fill="#7ff0e0" opacity="0.5"/><rect x="1124.5" y="164.5" width="5.0" height="6.0" rx=".8" fill="#ffd75e" opacity="0.65"/><rect x="1124.5" y="180.8" width="5.0" height="6.0" rx=".8" fill="#ffd75e" opacity="0.65"/><rect x="1136.5" y="115.5" width="5.0" height="6.0" rx=".8" fill="#ffd75e" opacity="0.65"/><rect x="1136.5" y="131.8" width="5.0" height="6.0" rx=".8" fill="#ffd75e" opacity="0.65"/><rect x="1136.5" y="148.2" width="5.0" height="6.0" rx=".8" fill="#7ff0e0" opacity="0.5"/><rect x="1148.5" y="99.2" width="5.0" height="6.0" rx=".8" fill="#7ff0e0" opacity="0.5"/><rect x="1148.5" y="148.2" width="5.0" height="6.0" rx=".8" fill="#ffd75e" opacity="0.65"/><rect x="1148.5" y="164.5" width="5.0" height="6.0" rx=".8" fill="#ffd75e" opacity="0.65"/><rect x="1148.5" y="180.8" width="5.0" height="6.0" rx=".8" fill="#7ff0e0" opacity="0.5"/><g transform="translate(300 16.00) scale(0.92 0.92)"><path d="M-5 200Q0 140 9 92L19 94Q7 142 5 200Z" fill="#4a0937"/><rect x="-3" y="100" width="13" height="2" rx="1" fill="#38062a"/><rect x="-2.1" y="114" width="12.5" height="2" rx="1" fill="#38062a"/><rect x="-1.2" y="128" width="12" height="2" rx="1" fill="#38062a"/><rect x="-0.2999999999999998" y="142" width="11.5" height="2" rx="1" fill="#38062a"/><rect x="0.6000000000000001" y="156" width="11" height="2" rx="1" fill="#38062a"/><rect x="1.5" y="170" width="10.5" height="2" rx="1" fill="#38062a"/><g transform="translate(13 92)" fill="#4a0937"><path d="M0 0Q-30-14-56-4Q-40-24-6-10Z"/><path d="M0 0Q-22-28-40-38Q-14-36-2-10Z"/><path d="M0 0Q2-32-6-54Q14-36 8-8Z"/><path d="M0 0Q24-28 44-38Q18-36 4-10Z"/><path d="M0 0Q32-13 58-2Q40-24 6-10Z"/><g stroke="#38062a" stroke-width="1.4" fill="none" opacity=".9"><path d="M0 0Q-28-12-52-4"/><path d="M0 0Q-20-26-36-36"/><path d="M0 0Q0-30-4-50"/><path d="M0 0Q22-26 40-36"/><path d="M0 0Q30-12 54-3"/></g><circle cx="-4" cy="5" r="4" fill="#38062a"/><circle cx="5" cy="7" r="3.4" fill="#38062a"/></g></g><g transform="translate(596 -12.00) scale(-1.06 1.06)"><path d="M-5 200Q0 140 9 92L19 94Q7 142 5 200Z" fill="#4a0937"/><rect x="-3" y="100" width="13" height="2" rx="1" fill="#38062a"/><rect x="-2.1" y="114" width="12.5" height="2" rx="1" fill="#38062a"/><rect x="-1.2" y="128" width="12" height="2" rx="1" fill="#38062a"/><rect x="-0.2999999999999998" y="142" width="11.5" height="2" rx="1" fill="#38062a"/><rect x="0.6000000000000001" y="156" width="11" height="2" rx="1" fill="#38062a"/><rect x="1.5" y="170" width="10.5" height="2" rx="1" fill="#38062a"/><g transform="translate(13 92)" fill="#4a0937"><path d="M0 0Q-30-14-56-4Q-40-24-6-10Z"/><path d="M0 0Q-22-28-40-38Q-14-36-2-10Z"/><path d="M0 0Q2-32-6-54Q14-36 8-8Z"/><path d="M0 0Q24-28 44-38Q18-36 4-10Z"/><path d="M0 0Q32-13 58-2Q40-24 6-10Z"/><g stroke="#38062a" stroke-width="1.4" fill="none" opacity=".9"><path d="M0 0Q-28-12-52-4"/><path d="M0 0Q-20-26-36-36"/><path d="M0 0Q0-30-4-50"/><path d="M0 0Q22-26 40-36"/><path d="M0 0Q30-12 54-3"/></g><circle cx="-4" cy="5" r="4" fill="#38062a"/><circle cx="5" cy="7" r="3.4" fill="#38062a"/></g></g><g transform="translate(930 28.00) scale(0.86 0.86)"><path d="M-5 200Q0 140 9 92L19 94Q7 142 5 200Z" fill="#4a0937"/><rect x="-3" y="100" width="13" height="2" rx="1" fill="#38062a"/><rect x="-2.1" y="114" width="12.5" height="2" rx="1" fill="#38062a"/><rect x="-1.2" y="128" width="12" height="2" rx="1" fill="#38062a"/><rect x="-0.2999999999999998" y="142" width="11.5" height="2" rx="1" fill="#38062a"/><rect x="0.6000000000000001" y="156" width="11" height="2" rx="1" fill="#38062a"/><rect x="1.5" y="170" width="10.5" height="2" rx="1" fill="#38062a"/><g transform="translate(13 92)" fill="#4a0937"><path d="M0 0Q-30-14-56-4Q-40-24-6-10Z"/><path d="M0 0Q-22-28-40-38Q-14-36-2-10Z"/><path d="M0 0Q2-32-6-54Q14-36 8-8Z"/><path d="M0 0Q24-28 44-38Q18-36 4-10Z"/><path d="M0 0Q32-13 58-2Q40-24 6-10Z"/><g stroke="#38062a" stroke-width="1.4" fill="none" opacity=".9"><path d="M0 0Q-28-12-52-4"/><path d="M0 0Q-20-26-36-36"/><path d="M0 0Q0-30-4-50"/><path d="M0 0Q22-26 40-36"/><path d="M0 0Q30-12 54-3"/></g><circle cx="-4" cy="5" r="4" fill="#38062a"/><circle cx="5" cy="7" r="3.4" fill="#38062a"/></g></g><g transform="translate(1126 0.00) scale(-1 1)"><path d="M-5 200Q0 140 9 92L19 94Q7 142 5 200Z" fill="#4a0937"/><rect x="-3" y="100" width="13" height="2" rx="1" fill="#38062a"/><rect x="-2.1" y="114" width="12.5" height="2" rx="1" fill="#38062a"/><rect x="-1.2" y="128" width="12" height="2" rx="1" fill="#38062a"/><rect x="-0.2999999999999998" y="142" width="11.5" height="2" rx="1" fill="#38062a"/><rect x="0.6000000000000001" y="156" width="11" height="2" rx="1" fill="#38062a"/><rect x="1.5" y="170" width="10.5" height="2" rx="1" fill="#38062a"/><g transform="translate(13 92)" fill="#4a0937"><path d="M0 0Q-30-14-56-4Q-40-24-6-10Z"/><path d="M0 0Q-22-28-40-38Q-14-36-2-10Z"/><path d="M0 0Q2-32-6-54Q14-36 8-8Z"/><path d="M0 0Q24-28 44-38Q18-36 4-10Z"/><path d="M0 0Q32-13 58-2Q40-24 6-10Z"/><g stroke="#38062a" stroke-width="1.4" fill="none" opacity=".9"><path d="M0 0Q-28-12-52-4"/><path d="M0 0Q-20-26-36-36"/><path d="M0 0Q0-30-4-50"/><path d="M0 0Q22-26 40-36"/><path d="M0 0Q30-12 54-3"/></g><circle cx="-4" cy="5" r="4" fill="#38062a"/><circle cx="5" cy="7" r="3.4" fill="#38062a"/></g></g></svg>